<?xml version="1.0" encoding="UTF-8"?>
<svg version="1.1" xmlns="http://www.w3.org/2000/svg" width="500" height="500">
<path d="M0 0 C165 0 330 0 500 0 C500 165 500 330 500 500 C335 500 170 500 0 500 C0 335 0 170 0 0 Z " fill="#FEF6E3" transform="translate(0,0)"/>
<path d="M0 0 C2.53171907 2.044497 3.55711761 3.93552015 4.578125 6.9921875 C4.84842529 7.77384277 5.11872559 8.55549805 5.3972168 9.36083984 C5.67863525 10.1905127 5.96005371 11.02018555 6.25 11.875 C9.86202935 22.0934068 13.98705124 31.59668449 21 40 C27.26415218 37.60772996 30.20483183 30.74139386 33 25 C35.10175298 19.98518436 37.02486903 14.90450098 38.85424805 9.78442383 C39.20656494 8.82173584 39.55888184 7.85904785 39.921875 6.8671875 C40.22706055 6.00206543 40.53224609 5.13694336 40.84667969 4.24560547 C42.20649309 1.5979417 43.42079319 0.4641181 46 -1 C49.42335626 -0.87988224 51.95416069 -0.60726153 54.9375 1.125 C56.63284147 4.11677906 56.22645548 6.60316781 56 10 C55.21853906 12.70149271 54.12009935 15.20193152 52.9375 17.75 C52.62095459 18.44665771 52.30440918 19.14331543 51.97827148 19.86108398 C46.87823514 30.82256344 41.17137856 38.94743783 31.25 45.9375 C25.57837455 47.79168524 19.40394201 48.26331869 13.7265625 46.15625 C11.62272735 44.92554802 9.84812436 43.58907764 8 42 C7.32195312 41.41863281 6.64390625 40.83726562 5.9453125 40.23828125 C-1.34924048 33.45297065 -5.59733178 25.3761469 -9.4375 16.3125 C-9.70900879 15.6949585 -9.98051758 15.07741699 -10.26025391 14.44116211 C-12.07490262 9.93343983 -12.12981127 6.69885609 -11 2 C-7.79952331 -1.93904824 -4.62362797 -1.17692348 0 0 Z " fill="#D74E4E" transform="translate(228,144)"/>
<path d="M0 0 C2.5625 1.5625 2.5625 1.5625 4 4 C4.07065461 7.95665802 3.73239517 10.11607479 1.1875 13.1875 C-1.71000251 14.83509947 -4.15493369 15.75897036 -7.3125 16.75 C-18.40901439 20.23394889 -29.04892416 25.54077014 -38 33 C-29.0844062 43.10433964 -15.05213509 48.10275426 -2.6328125 52.58984375 C0.9750082 53.99029888 2.37429576 54.54537848 4 58 C4.5 60.4375 4.5 60.4375 4 63 C1.875 65.8125 1.875 65.8125 -1 68 C-6.52560384 68.73565732 -10.70868445 66.80357777 -15.625 64.5625 C-16.41680664 64.20341553 -17.20861328 63.84433105 -18.02441406 63.47436523 C-29.568194 58.0481325 -38.65921579 51.3312096 -44.1484375 39.53125 C-45.84718374 34.48176576 -45.12461805 29.43399477 -42.90625 24.6328125 C-34.78657655 11.59622568 -15.94919537 -1.51897099 0 0 Z " fill="#D74F4F" transform="translate(310,173)"/>
<path d="M0 0 C3.66920077 0.40841215 6.75529772 1.75570852 10.07714844 3.30761719 C11.11923462 3.78134766 11.11923462 3.78134766 12.18237305 4.26464844 C22.72212298 9.20090953 33.6558302 16.21471466 38.54199219 27.21386719 C40.57248909 33.46154995 39.26307983 38.3947769 36.45214844 44.08496094 C30.13927579 54.99439398 19.63838099 60.39675257 8.30371094 64.98339844 C5.31261204 66.14779053 5.31261204 66.14779053 2.97558594 67.38574219 C0.20664847 68.72751805 -1.7766667 68.68570665 -4.79785156 68.24511719 C-8.00005279 65.46425823 -8.72576895 63.84237312 -9.23535156 59.62011719 C-8.76171222 55.96632798 -8.52792618 55.4449675 -5.79785156 53.24511719 C-3.91943359 52.37304688 -3.91943359 52.37304688 -1.80566406 51.66699219 C-1.02408936 51.39677246 -0.24251465 51.12655273 0.56274414 50.84814453 C1.39249756 50.56664551 2.22225098 50.28514648 3.07714844 49.99511719 C13.63739977 46.25642576 23.93256287 42.04215501 32.20214844 34.24511719 C24.30545025 24.93829433 12.52145404 20.95213212 1.32519531 17.08569336 C0.44798828 16.77349854 -0.42921875 16.46130371 -1.33300781 16.13964844 C-2.12070557 15.86999268 -2.90840332 15.60033691 -3.7199707 15.32250977 C-6.25297212 14.00913469 -7.33535238 12.67687716 -8.79785156 10.24511719 C-9.20781069 6.9654442 -9.08077334 4.91705641 -7.79785156 1.87011719 C-5.22266807 -0.2222194 -3.2350807 -0.07150156 0 0 Z " fill="#D74E4E" transform="translate(195.7978515625,172.7548828125)"/>
<path d="M0 0 C11.67575023 6.41445538 19.20464294 21.6018336 23 34 C23.28515625 37.7578125 23.28515625 37.7578125 23 41 C20.38478226 43.99980859 18.81645726 44.88569598 14.875 45.4375 C11.52363597 44.92750982 11.02866184 44.62345275 9 42 C7.99801175 39.5670113 7.1007102 37.17166753 6.25 34.6875 C2.28280344 23.65969791 -2.34874895 13.02455252 -10 4 C-15.29936073 5.76645358 -17.46238405 11.24798414 -20 16 C-23.56468 23.2778196 -26.85793796 30.71727133 -29.546875 38.36328125 C-30.85098674 41.62706628 -31.38443649 42.89992112 -34 45 C-37.4375 45.5 -37.4375 45.5 -41 45 C-43.5 43 -43.5 43 -45 40 C-45.21958893 27.48343127 -37.00502364 14.41845039 -28.73046875 5.57421875 C-19.90485766 -2.64998784 -11.18099121 -5.98981672 0 0 Z " fill="#D74E4D" transform="translate(261,225)"/>
<path d="M0 0 C2.37438095 0.94975238 3.80275034 1.75986998 5.4375 3.75 C6 6 6 6 5 8.8125 C-2.06641648 20.07460126 -11.75919628 25.82606058 -23.8984375 30.73828125 C-26.88953639 31.90267335 -26.88953639 31.90267335 -29.2265625 33.140625 C-31.99549997 34.48240087 -33.97881513 34.44058946 -37 34 C-40.20220123 31.21914104 -40.92791739 29.59725593 -41.4375 25.375 C-40.96386066 21.72121079 -40.73007462 21.19985032 -38 19 C-36.12158203 18.12792969 -36.12158203 18.12792969 -34.0078125 17.421875 C-33.22623779 17.15165527 -32.44466309 16.88143555 -31.6394043 16.60302734 C-30.80965088 16.32152832 -29.97989746 16.0400293 -29.125 15.75 C-18.56474866 12.01130857 -8.26958557 7.79703782 0 0 Z " fill="#A04654" transform="translate(228,207)"/>
<path d="M0 0 C2.53171907 2.044497 3.55711761 3.93552015 4.578125 6.9921875 C4.84834473 7.77368164 5.11856445 8.55517578 5.39697266 9.36035156 C5.67847168 10.19018555 5.9599707 11.02001953 6.25 11.875 C10.11539757 22.80246031 14.90489 32.75485666 22 42 C19.8125 44.0625 19.8125 44.0625 17 46 C11.1278263 45.55628269 8.02374833 41.93627554 4 38 C3.47148437 37.49597656 2.94296875 36.99195313 2.3984375 36.47265625 C-2.87104414 30.93547367 -5.84513119 23.86601171 -9 17 C-9.37769531 16.195625 -9.75539062 15.39125 -10.14453125 14.5625 C-12.07209644 10.05604621 -12.38603302 6.71251227 -11 2 C-7.79952331 -1.93904824 -4.62362797 -1.17692348 0 0 Z " fill="#9F4452" transform="translate(228,144)"/>
<path d="M0 0 C2.5625 1.5625 2.5625 1.5625 4 4 C4.07065461 7.95665802 3.73239517 10.11607479 1.1875 13.1875 C-1.71000251 14.83509947 -4.15493369 15.75897036 -7.3125 16.75 C-17.6940668 20.00947833 -28.29956736 24.82456163 -36.51953125 32.06640625 C-37.00808594 32.37449219 -37.49664062 32.68257812 -38 33 C-40.99332739 32.0022242 -41.94766315 31.2477975 -44 29 C-40.98292702 18.32420329 -32.63706708 12.11406141 -23.34375 6.76171875 C-8.05339806 -1.29429612 -8.05339806 -1.29429612 0 0 Z " fill="#9E4452" transform="translate(310,173)"/>
<path d="M0 0 C7.92632178 1.81173069 13.3833286 7.95803413 17.625 14.5 C22.94164865 23.01780201 28.90690583 32.68860489 28 43 C25.38478226 45.99980859 23.81645726 46.88569598 19.875 47.4375 C16.52363597 46.92750982 16.02866184 46.62345275 14 44 C12.99801175 41.5670113 12.1007102 39.17166753 11.25 36.6875 C7.28280344 25.65969791 2.65125105 15.02455252 -5 6 C-3.63016497 2.83884224 -3.0109362 2.0072908 0 0 Z " fill="#9E4452" transform="translate(256,223)"/>
<path d="M0 0 C8.58 0 17.16 0 26 0 C26 7 26 7 24.62304688 9.17163086 C23.68041992 10.05927124 23.68041992 10.05927124 22.71875 10.96484375 C21.70361328 11.94614258 21.70361328 11.94614258 20.66796875 12.94726562 C19.95253906 13.60404297 19.23710937 14.26082031 18.5 14.9375 C17.78457031 15.62134766 17.06914062 16.30519531 16.33203125 17.00976562 C14.57008982 18.68948312 12.78702912 20.34699806 11 22 C15.95 22.33 20.9 22.66 26 23 C26 24.98 26 26.96 26 29 C17.42 29 8.84 29 0 29 C0 22 0 22 1.17749023 20.04370117 C1.71575439 19.54845947 2.25401855 19.05321777 2.80859375 18.54296875 C3.39060547 17.98802734 3.97261719 17.43308594 4.57226562 16.86132812 C5.18779297 16.30896484 5.80332031 15.75660156 6.4375 15.1875 C7.64619718 14.05776933 8.8533073 12.92633755 10.05859375 11.79296875 C10.59798584 11.3033667 11.13737793 10.81376465 11.69311523 10.30932617 C13.12539062 9.01200403 13.12539062 9.01200403 14 7 C9.38 7 4.76 7 0 7 C0 4.69 0 2.38 0 0 Z " fill="#843B66" transform="translate(222,299)"/>
<path d="M0 0 C3.3 0 6.6 0 10 0 C10 0.66 10 1.32 10 2 C9.34 2 8.68 2 8 2 C7.773125 2.556875 7.54625 3.11375 7.3125 3.6875 C6 6 6 6 3.3125 8.4375 C0.71708039 10.71071933 0.71708039 10.71071933 1.1015625 13.3046875 C2.21639325 16.64917976 3.90872012 18.90316023 6.0625 21.6875 C10 26.80140598 10 26.80140598 10 29 C6.80656435 29.65172156 4.16729168 29.85196137 1 29 C-1.91288808 25.99212644 -3.97298644 22.64992796 -6 19 C-9.42436208 21.9836935 -9.57781494 24.5248384 -10 29 C-12.31 29 -14.62 29 -17 29 C-17 19.76 -17 10.52 -17 1 C-14.69 1 -12.38 1 -10 1 C-9.67 4.3 -9.34 7.6 -9 11 C-7.68485396 9.54405245 -6.37296283 8.08516421 -5.0625 6.625 C-4.33160156 5.81289063 -3.60070312 5.00078125 -2.84765625 4.1640625 C-0.97010529 2.14075833 -0.97010529 2.14075833 0 0 Z " fill="#803361" transform="translate(269,299)"/>
<path d="M0 0 C2.94240806 2.64062262 3.89356903 4.13081371 4.375 8.0625 C4.0066092 10.94822797 3.68261422 12.6443401 2 15 C-1.44070289 17.54866881 -4.85043899 17.58239453 -9 17 C-12.22341676 14.11949992 -13.75697586 12.19081827 -14.625 7.9375 C-13.79188716 4.02186963 -12.03093154 2.52577629 -9 0 C-5.77839187 -1.61080407 -3.42436421 -0.82657067 0 0 Z " fill="#D85150" transform="translate(255,267)"/>
<path d="M0 0 C2.9375 1.4375 2.9375 1.4375 5 4 C5.89487669 8.27813857 5.70907738 11.73599249 3.5625 15.5625 C-0.26400751 17.70907738 -3.72186143 17.89487669 -8 17 C-11.31578076 14.33120085 -11.89008359 12.68392436 -12.5625 8.5 C-12 5 -12 5 -9.9375 2.0625 C-6.2404927 -0.53327109 -4.43355658 -0.71253588 0 0 Z " fill="#D74E4E" transform="translate(322,198)"/>
<path d="M0 0 C2.09375 0.484375 2.09375 0.484375 4.65625 2.609375 C6.34794769 5.99277038 6.71570931 7.75261914 6.09375 11.484375 C4.29381226 14.18428162 3.009977 16.0262615 0.09375 17.484375 C-3.90015436 18.01689558 -5.42366242 17.83827256 -8.71875 15.421875 C-11.3552033 11.88149486 -12.06387308 9.89782132 -11.90625 5.484375 C-8.77043422 0.57159694 -5.54450032 -0.33267002 0 0 Z " fill="#D84F4F" transform="translate(252.90625,129.515625)"/>
<path d="M0 0 C2.9375 1.4375 2.9375 1.4375 5 4 C5.89487669 8.27813857 5.70907738 11.73599249 3.5625 15.5625 C-0.26400751 17.70907738 -3.72186143 17.89487669 -8 17 C-11.31578076 14.33120085 -11.89008359 12.68392436 -12.5625 8.5 C-12 5 -12 5 -9.9375 2.0625 C-6.2404927 -0.53327109 -4.43355658 -0.71253588 0 0 Z " fill="#D74E4D" transform="translate(185,198)"/>
</svg>
