<?xml version="1.0" encoding="UTF-8"?>
<svg version="1.1" xmlns="http://www.w3.org/2000/svg" width="500" height="500">
<path d="M0 0 C165 0 330 0 500 0 C500 165 500 330 500 500 C335 500 170 500 0 500 C0 335 0 170 0 0 Z " fill="#FEFEFE" transform="translate(0,0)"/>
<path d="M0 0 C44.22 0 88.44 0 134 0 C132.62191266 3.44521836 131.53527676 5.95948877 129.6015625 8.9765625 C128.89193359 10.0912793 128.89193359 10.0912793 128.16796875 11.22851562 C127.65878906 12.01935547 127.14960938 12.81019531 126.625 13.625 C125.5337441 15.3358673 124.44260139 17.0468068 123.3515625 18.7578125 C122.7937207 19.62954102 122.23587891 20.50126953 121.66113281 21.39941406 C119.09122429 25.42273353 116.54616611 29.46163082 114 33.5 C113.00013493 35.08341854 112.00013452 36.66675163 111 38.25 C110.505 39.03375 110.01 39.8175 109.5 40.625 C93 66.75 93 66.75 91.50073242 69.1237793 C90.49821757 70.71113526 89.49577646 72.29853779 88.4934082 73.88598633 C86.03248037 77.78315395 83.57038288 81.67957101 81.10546875 85.57421875 C75.58346299 94.30270013 70.09168396 103.0492527 64.625 111.8125 C58.57911394 121.50167749 52.46834511 131.14775128 46.328125 140.77734375 C38.52748835 153.01138721 30.80775167 165.295642 23.12109375 177.6015625 C22.43301636 178.70282471 21.74493896 179.80408691 21.03601074 180.9387207 C19.35718498 183.6257167 17.67851783 186.31281164 16 189 C23.89406254 188.93844528 31.78775345 188.86109753 39.68145466 188.76428509 C43.34791626 188.71979903 47.01427231 188.68049704 50.6809082 188.65356445 C54.22785027 188.62731158 57.77438121 188.58675981 61.3210659 188.53681374 C63.3142344 188.51232144 65.30756268 188.50215756 67.30085754 188.49235535 C78.09570656 188.32010015 87.4406937 186.27734652 97.0625 181.375 C97.74368896 181.02872559 98.42487793 180.68245117 99.12670898 180.32568359 C120.5861809 168.96164622 130.27437276 145.01691419 137.27319336 123.02026367 C138.03035285 120.91562989 138.96234175 118.97946855 140 117 C140.99 117 141.98 117 143 117 C142.30417223 124.73985893 140.34580288 132.12498123 138.4375 139.640625 C138.08218726 141.0544005 137.72729525 142.4682818 137.37280273 143.88226318 C136.44358615 147.58394664 135.50872733 151.28418189 134.57263184 154.98413086 C133.62051962 158.75158066 132.67376206 162.52037517 131.7265625 166.2890625 C130.06224764 172.90815472 128.39329357 179.52605924 126.72094727 186.14312744 C126.14434517 188.42800845 125.57153823 190.71384706 125 193 C76.49 193 27.98 193 -22 193 C-17.40134151 185.11658545 -12.76682126 177.41410345 -7.75 169.8125 C-6.4268353 167.79573563 -5.10392041 165.77880734 -3.78125 163.76171875 C-3.13800781 162.78251465 -2.49476563 161.80331055 -1.83203125 160.79443359 C0.71135952 156.91494922 3.23343833 153.02192311 5.75 149.125 C6.19158447 148.44155518 6.63316895 147.75811035 7.08813477 147.05395508 C7.96265998 145.70041937 8.83709182 144.34682332 9.71142578 142.99316406 C10.99194785 141.01245505 12.27487502 139.03332596 13.55859375 137.0546875 C18.98835156 128.68211493 24.37812238 120.28483354 29.75 111.875 C35.56658718 102.77089617 41.43962799 93.70601883 47.35449219 84.66552734 C51.94657265 77.63788823 56.48333623 70.5763069 61 63.5 C67.44163933 53.40885527 73.95650606 43.36786849 80.5078125 33.34765625 C84.19227883 27.71145692 87.85180011 22.05933235 91.5012207 16.40039062 C91.90687256 15.77197266 92.31252441 15.14355469 92.73046875 14.49609375 C93.07489014 13.96169678 93.41931152 13.4272998 93.77416992 12.87670898 C95.49733821 10.23859016 97.24964298 7.62013107 99 5 C91.99319623 4.9488046 84.98644164 4.91406102 77.97949219 4.89013672 C75.60154416 4.88015075 73.22360819 4.86655731 70.84570312 4.84912109 C46.15349216 4.67274816 24.55167113 5.6897042 5.5 23.3125 C-7.05522046 36.56523271 -16.00575884 54.2746407 -23 71 C-24.32 70.67 -25.64 70.34 -27 70 C-24.44320225 63.24445217 -21.88343034 56.49003635 -19.32177734 49.73632812 C-18.454262 47.44816427 -17.58737903 45.15976055 -16.72119141 42.87109375 C-15.46170804 39.54360584 -14.19979904 36.21704564 -12.9375 32.890625 C-12.56318848 31.90016174 -12.18887695 30.90969849 -11.80322266 29.88922119 C-7.99644221 19.87058098 -3.982736 9.95684 0 0 Z " fill="#050505" transform="translate(168,128)"/>
<path d="M0 0 C3.12996675 2.93920521 5.49318411 6.00304887 7.86328125 9.578125 C8.58580078 10.65707031 9.30832031 11.73601562 10.05273438 12.84765625 C11.17967614 14.54233854 12.30472165 16.23825505 13.4284668 17.93505859 C23.7645157 34.16451064 23.7645157 34.16451064 40.41796875 42.5234375 C42.2696006 42.76595211 44.1354294 42.89641274 46 43 C46 43.99 46 44.98 46 46 C41.05621051 46.09975053 36.11302178 46.17187902 31.16845703 46.21972656 C29.49061869 46.23969699 27.81284864 46.26688332 26.13525391 46.30175781 C8.17467346 46.66546224 8.17467346 46.66546224 0 42 C-0.92296875 41.49339844 -1.8459375 40.98679687 -2.796875 40.46484375 C-4.965221 38.76919718 -6.46190745 37.29125049 -8 35 C-7.98974609 32.65527344 -7.98974609 32.65527344 -7.3984375 30.046875 C-7.18638672 29.07741943 -6.97433594 28.10796387 -6.75585938 27.10913086 C-6.50642578 26.08311768 -6.25699219 25.05710449 -6 24 C-5.75572266 22.96302979 -5.51144531 21.92605957 -5.25976562 20.85766602 C-4.49052892 17.66890587 -3.68841266 14.49025808 -2.875 11.3125 C-2.59785156 10.21744141 -2.32070313 9.12238281 -2.03515625 7.99414062 C-1.36003585 5.32857906 -0.68160672 2.66390888 0 0 Z " fill="#040404" transform="translate(317,277)"/>
<path d="M0 0 C0.97001953 0.00644531 1.94003906 0.01289063 2.93945312 0.01953125 C3.93009766 0.03628906 4.92074219 0.05304688 5.94140625 0.0703125 C6.95912109 0.07933594 7.97683594 0.08835938 9.02539062 0.09765625 C11.51847781 0.12106552 14.01106484 0.1538555 16.50390625 0.1953125 C16.10557248 6.18990922 14.90435567 9.94466772 11.31640625 14.8203125 C10.41109444 16.10990063 9.50895269 17.4017179 8.609375 18.6953125 C8.11614746 19.40042969 7.62291992 20.10554688 7.11474609 20.83203125 C3.35684323 26.34529281 -0.12898533 32.04153271 -3.67260742 37.69384766 C-4.24084229 38.59409668 -4.80907715 39.4943457 -5.39453125 40.421875 C-6.14742432 41.62191162 -6.14742432 41.62191162 -6.91552734 42.84619141 C-8.63262764 45.39823637 -10.57457332 47.79341197 -12.49609375 50.1953125 C-12.49609375 34.3553125 -12.49609375 18.5153125 -12.49609375 2.1953125 C-4.62109375 -0.0546875 -4.62109375 -0.0546875 0 0 Z " fill="#040404" transform="translate(223.49609375,144.8046875)"/>
<path d="M0 0 C0.33 0 0.66 0 1 0 C1 16.17 1 32.34 1 49 C-8.24 49 -17.48 49 -27 49 C-27 42.25087566 -27 42.25087566 -24.140625 37.83203125 C-23.52461426 36.86458984 -22.90860352 35.89714844 -22.27392578 34.90039062 C-21.60603027 33.88138672 -20.93813477 32.86238281 -20.25 31.8125 C-19.57565918 30.76126953 -18.90131836 29.71003906 -18.20654297 28.62695312 C-16.82130417 26.46771582 -15.43114088 24.31163004 -14.03613281 22.15869141 C-12.12081426 19.18742146 -10.23670335 16.19946506 -8.3671875 13.19921875 C-7.81772461 12.31838623 -7.26826172 11.43755371 -6.70214844 10.5300293 C-5.66531792 8.86676697 -4.62948099 7.20288478 -3.59472656 5.53833008 C-2.42328424 3.67509916 -1.21583581 1.83457076 0 0 Z " fill="#020202" transform="translate(238,255)"/>
<path d="M0 0 C0.66 0 1.32 0 2 0 C2.87633276 1.02732253 3.70137211 2.09867302 4.5 3.1875 C9.06212249 8.59608859 14.30288393 11.54860792 21.359375 12.41015625 C27.428986 12.56807599 30.81055177 12.17181895 36 9 C36.99 9.33 37.98 9.66 39 10 C40.59739521 14.82999379 39.15034254 18.50222231 37.4375 23.0625 C37.16663574 23.80749756 36.89577148 24.55249512 36.61669922 25.32006836 C34.20385074 31.7958199 31.30068848 37.92532864 28 44 C25.15171966 41.28982751 22.86650942 38.55277272 20.6796875 35.2890625 C20.06609375 34.3801123 19.4525 33.47116211 18.8203125 32.53466797 C18.17835938 31.57447754 17.53640625 30.61428711 16.875 29.625 C11.44289904 21.51292827 11.44289904 21.51292827 5.7578125 13.578125 C5.28617676 12.94181152 4.81454102 12.30549805 4.32861328 11.64990234 C3.46515814 10.49640751 2.59161386 9.35037259 1.70654297 8.21337891 C-1.05412146 4.51246257 -1.05412146 4.51246257 -0.75 1.6328125 C-0.5025 1.09398437 -0.255 0.55515625 0 0 Z " fill="#050505" transform="translate(254,230)"/>
<path d="M0 0 C12.21 0 24.42 0 37 0 C37 0.99 37 1.98 37 3 C35.94941406 3.08636719 34.89882813 3.17273438 33.81640625 3.26171875 C16.82369844 4.86763191 8.79959918 12.10949447 -2.1875 24.90234375 C-4.25850341 27.29917312 -6.37603218 29.65000182 -8.5 32 C-11.77072923 35.62432158 -15.0016922 39.27883178 -18.20703125 42.9609375 C-20.17841043 45.20289813 -22.18162691 47.41385803 -24.1875 49.625 C-28.57306039 54.47180036 -32.81338913 59.43501812 -37.0144043 64.44189453 C-40.78273346 68.89136673 -40.78273346 68.89136673 -43 70 C-38.91320386 58.70594761 -29.535926 50.06764788 -21.43017578 41.52294922 C-19.14914481 39.09395106 -16.97809164 36.57560645 -14.8046875 34.05078125 C-12.89116069 31.87631897 -10.9266235 29.75296065 -8.95458984 27.6315918 C-5.13822199 23.51480828 -1.34424706 19.37559647 2.25 15.0625 C2.81203125 14.39347656 3.3740625 13.72445312 3.953125 13.03515625 C5.22803127 10.9839111 5.22803127 10.9839111 4.83203125 8.328125 C4.20526204 5.73599 4.20526204 5.73599 1.4375 4.6875 C0.633125 4.460625 -0.17125 4.23375 -1 4 C-0.67 2.68 -0.34 1.36 0 0 Z " fill="#090909" transform="translate(313,136)"/>
<path d="M0 0 C0 3.59923873 -0.57477968 3.99618927 -2.9375 6.5625 C-3.57558594 7.26503906 -4.21367187 7.96757812 -4.87109375 8.69140625 C-5.92490234 9.83416016 -5.92490234 9.83416016 -7 11 C-8.50160313 12.66522245 -10.00156267 14.33192826 -11.5 16 C-12.263125 16.845625 -13.02625 17.69125 -13.8125 18.5625 C-16.30428772 21.33906346 -18.75754175 24.14710745 -21.20703125 26.9609375 C-23.17841043 29.20289813 -25.18162691 31.41385803 -27.1875 33.625 C-31.57306039 38.47180036 -35.81338913 43.43501812 -40.0144043 48.44189453 C-43.78273346 52.89136673 -43.78273346 52.89136673 -46 54 C-41.91456586 42.70971156 -32.54199065 34.07383215 -24.43896484 25.53173828 C-22.66417667 23.64252535 -20.9475744 21.7087397 -19.25 19.75 C-18.72921875 19.14929688 -18.2084375 18.54859375 -17.671875 17.9296875 C-17.12015625 17.29289062 -16.5684375 16.65609375 -16 16 C-10.96297958 10.22010966 -5.96848726 4.82558544 0 0 Z " fill="#131313" transform="translate(316,152)"/>
<path d="M0 0 C0 4.09997329 -1.65135355 5.38162426 -4.25 8.5 C-5.03890625 9.4590625 -5.8278125 10.418125 -6.640625 11.40625 C-8.65437121 13.62003723 -10.53607079 15.32724072 -13 17 C-10.36569436 9.53613402 -6.08040582 4.81650124 0 0 Z " fill="#1A1A1A" transform="translate(283,189)"/>
</svg>
